# xmcd CD database file
#
# Track frame offsets:
#	150
#	13254
#	29444
#	42697
#	55724
#	70661
#	83024
#	94154
#	106448
#	124368
#	137705
#	152411
#	173016
#	189375
#	199389
#	216338
#	232391
#	248073
#
# Disc length: 3494 seconds
#
# Revision: 0
# Processed by: cddbd v1.5.2PL0 Copyright (c) Steve Scherf et al.
# Submitted via: ACXtractor (MTCDDB.DLL V2003.07.15)
#
DISCID=050da412
DTITLE=Reg Lindsay - Secrets of Life Disc 2
DYEAR=2002
DGENRE=Country
TTITLE0=Takin' a Chance
TTITLE1=If it's so Easy
TTITLE2=July, You're a Woman
TTITLE3=Play Me a Song I can Cry To
TTITLE4=Queen of the Starlight Ballroom
TTITLE5=Fletcher's Place
TTITLE6=Wild and Woolly Ways
TTITLE7=Behind Closed Doors
TTITLE8=Country all the Way
TTITLE9=He Hardly Ever Smiled
TTITLE10=Looking at a Loser
TTITLE11=Don't Act the Big Star with Me
TTITLE12=It Ain't the Gold
TTITLE13=Love's all this Cowboy Can Give
TTITLE14=Murrumbidgee Man
TTITLE15=I Believe in You
TTITLE16=Today's Like Yesterday
TTITLE17=One Day at a Time
EXTD=ID3G:   2 YEAR: 2002
EXTT0=
EXTT1=
EXTT2=
EXTT3=
EXTT4=
EXTT5=
EXTT6=
EXTT7=
EXTT8=
EXTT9=
EXTT10=
EXTT11=
EXTT12=
EXTT13=
EXTT14=
EXTT15=
EXTT16=
EXTT17=
PLAYORDER=
